<?xml version="1.0" encoding="UTF-8"?>
<svg xmlns="http://www.w3.org/2000/svg" width="32" height="32">
<path style=" stroke:none;fill-rule:evenodd;fill:rgb(100%,0%,12.941176%);fill-opacity:1;" d="M 13.074219 0.199219 C 11.046875 0.566406 8.777344 1.511719 6.875 2.785156 C 5.671875 3.59375 3.59375 5.671875 2.785156 6.875 C 0.863281 9.75 0 12.574219 0 16.015625 C 0 19.429688 0.859375 22.246094 2.785156 25.125 C 3.59375 26.328125 5.671875 28.40625 6.875 29.214844 C 9.75 31.136719 12.574219 32 16.015625 32 C 19.429688 32 22.246094 31.140625 25.125 29.214844 C 26.347656 28.394531 28.410156 26.324219 29.246094 25.074219 C 30.523438 23.167969 31.585938 20.535156 31.8125 18.714844 C 31.863281 18.320312 31.953125 17.964844 32.015625 17.929688 C 32.074219 17.890625 32.125 16.960938 32.125 15.859375 C 32.125 14.761719 32.078125 13.890625 32.015625 13.925781 C 31.957031 13.964844 31.875 13.695312 31.832031 13.328125 C 31.621094 11.5625 30.519531 8.824219 29.246094 6.925781 C 28.410156 5.675781 26.347656 3.605469 25.125 2.785156 C 23.164062 1.472656 20.953125 0.566406 18.8125 0.195312 C 17.410156 -0.046875 14.433594 -0.0429688 13.074219 0.199219 M 11.578125 12.34375 C 10.710938 12.632812 9.75 13.554688 9.300781 14.527344 C 8.976562 15.230469 8.9375 15.445312 8.9375 16.570312 C 8.9375 17.757812 8.960938 17.867188 9.316406 18.445312 C 9.867188 19.335938 10.542969 19.679688 11.75 19.683594 C 13.789062 19.6875 15.1875 18.414062 15.628906 16.152344 C 16.179688 13.347656 14.1875 11.472656 11.578125 12.34375 M 17.132812 15.09375 C 16.835938 16.726562 16.523438 18.445312 16.4375 18.910156 L 16.277344 19.761719 L 17.105469 19.722656 L 17.933594 19.6875 L 18.164062 18.421875 L 18.394531 17.160156 L 19.664062 17.09375 C 21.417969 17.003906 22.242188 16.628906 22.84375 15.648438 C 23.179688 15.097656 23.226562 13.9375 22.9375 13.375 C 22.675781 12.871094 22.035156 12.414062 21.371094 12.261719 C 21.066406 12.1875 20.105469 12.128906 19.242188 12.128906 L 17.667969 12.125 L 17.132812 15.09375 M 12.199219 13.503906 C 11.3125 13.769531 10.667969 14.90625 10.554688 16.402344 C 10.496094 17.136719 10.527344 17.398438 10.710938 17.75 C 11.003906 18.3125 11.488281 18.546875 12.136719 18.4375 C 13.195312 18.257812 13.871094 17.167969 13.972656 15.46875 C 14.046875 14.277344 13.871094 13.789062 13.296875 13.546875 C 12.832031 13.355469 12.71875 13.351562 12.199219 13.503906 M 18.878906 14.460938 C 18.792969 14.988281 18.695312 15.496094 18.660156 15.585938 C 18.613281 15.710938 18.816406 15.75 19.5625 15.75 C 20.96875 15.75 21.5 15.355469 21.5 14.3125 C 21.5 13.6875 21.15625 13.5 19.988281 13.5 L 19.035156 13.5 L 18.878906 14.460938 M 0.0507812 16 C 0.0507812 17.132812 0.0703125 17.597656 0.09375 17.03125 C 0.117188 16.464844 0.117188 15.535156 0.09375 14.96875 C 0.0703125 14.402344 0.0507812 14.867188 0.0507812 16 "/>
<path style=" stroke:none;fill-rule:evenodd;fill:rgb(100%,100%,100%);fill-opacity:1;" d="M 11.578125 12.34375 C 10.710938 12.632812 9.75 13.554688 9.300781 14.527344 C 8.976562 15.230469 8.9375 15.445312 8.9375 16.570312 C 8.9375 17.757812 8.960938 17.867188 9.316406 18.445312 C 9.867188 19.335938 10.542969 19.679688 11.75 19.683594 C 13.789062 19.6875 15.1875 18.414062 15.628906 16.152344 C 16.179688 13.347656 14.1875 11.472656 11.578125 12.34375 M 17.132812 15.09375 C 16.835938 16.726562 16.523438 18.445312 16.4375 18.910156 L 16.277344 19.761719 L 17.105469 19.722656 L 17.933594 19.6875 L 18.164062 18.421875 L 18.394531 17.160156 L 19.664062 17.09375 C 21.417969 17.003906 22.242188 16.628906 22.84375 15.648438 C 23.179688 15.097656 23.226562 13.9375 22.9375 13.375 C 22.675781 12.871094 22.035156 12.414062 21.371094 12.261719 C 21.066406 12.1875 20.105469 12.128906 19.242188 12.128906 L 17.667969 12.125 L 17.132812 15.09375 M 12.199219 13.503906 C 11.3125 13.769531 10.667969 14.90625 10.554688 16.402344 C 10.496094 17.136719 10.527344 17.398438 10.710938 17.75 C 11.003906 18.3125 11.488281 18.546875 12.136719 18.4375 C 13.195312 18.257812 13.871094 17.167969 13.972656 15.46875 C 14.046875 14.277344 13.871094 13.789062 13.296875 13.546875 C 12.832031 13.355469 12.71875 13.351562 12.199219 13.503906 M 18.878906 14.460938 C 18.792969 14.988281 18.695312 15.496094 18.660156 15.585938 C 18.613281 15.710938 18.816406 15.75 19.5625 15.75 C 20.96875 15.75 21.5 15.355469 21.5 14.3125 C 21.5 13.6875 21.15625 13.5 19.988281 13.5 L 19.035156 13.5 L 18.878906 14.460938 "/>
</svg>
