<?xml version="1.0" standalone="yes"?>
<svg xmlns="http://www.w3.org/2000/svg" width="280" height="280">
<path style="fill:#fffeff; stroke:none;" d="M0 0L0 300L300 300L300 0L0 0z"/>
<path style="fill:#844ae2; stroke:none;" d="M161 174C154.864 177.146 144.867 181.172 140.333 186.417C135.992 191.439 138.213 211.106 142.417 215.778C149.354 223.489 163.051 228.21 172 233.389C181.43 238.846 193.422 249.135 205 246.75C218.832 243.9 234.76 230.472 247 223.389C251.938 220.531 257.91 218.279 260.722 213C267.661 199.974 263 175.538 263 161C263 155.235 263.89 148.073 260.5 143C257.381 138.332 250.704 135.799 246 133C233.679 125.67 216.294 111.241 202 109.222C192.512 107.882 180.654 118.216 173 122.806C151.119 135.924 128.83 150.36 106 161.722C94.9334 167.23 67.6796 150.65 61.5 141C58.265 135.948 60 126.786 60 121C60 114.985 58.2107 105.467 60.9444 100C64.026 93.837 71.3675 90.8707 77 87.6111C82.8136 84.2467 90.2782 77.9858 97 77.0833C106.905 75.7536 131.225 90.7626 136.5 99C140.326 104.974 138 117.095 138 124C143.089 122.696 157.695 116.044 159.667 110.917C161.131 107.109 160 101.05 160 97C160 92.5075 160.705 87.7524 157.75 84C153.676 78.8279 146.528 76.1197 141 72.8056C129.478 65.8977 117.446 57.1537 105 52.0833C93.0294 47.2064 75.7872 61.9378 66 67.8056C58.0278 72.5852 44.6567 77.0034 39.5 85C36.6207 89.465 38 96.9057 38 102L38 139C38 143.865 36.7458 150.729 39.5 155C45.0609 163.623 60.3176 168.895 69 174C77.7441 179.141 91.3408 190.628 102 188.778C112.376 186.976 124.019 177.343 133 172C152.779 160.234 172.648 147.992 193 137.25C204.847 130.998 235.795 148.594 239.528 161C242.05 169.383 242.513 192.689 237.5 200C232.345 207.517 210.227 221.139 201 221.694C191.183 222.285 167.515 207.133 162.639 199C158.829 192.645 161 181.182 161 174z"/>
</svg>
